<?xml version="1.0" standalone="no"?>
<!DOCTYPE svg PUBLIC "-//W3C//DTD SVG 20010904//EN"
 "http://www.w3.org/TR/2001/REC-SVG-20010904/DTD/svg10.dtd">
<svg version="1.0" xmlns="http://www.w3.org/2000/svg"
 width="4500.000000pt" height="4500.000000pt" viewBox="0 0 4500.000000 4500.000000"
 preserveAspectRatio="xMidYMid meet">

<g transform="translate(0.000000,4500.000000) scale(0.100000,-0.100000)"
fill="#000000" stroke="none">
<path d="M21400 36819 c-757 -26 -1570 -163 -2300 -388 -1317 -405 -2542
-1140 -3522 -2111 -482 -478 -876 -971 -1245 -1555 -752 -1193 -1205 -2622
-1293 -4085 -6 -102 -18 -213 -26 -248 -22 -97 -19 -410 6 -602 11 -85 29
-263 40 -395 51 -602 138 -1094 284 -1615 361 -1278 977 -2415 1835 -3385 129
-145 473 -493 626 -632 829 -753 1783 -1333 2836 -1726 508 -189 990 -318
1604 -427 306 -54 406 -66 690 -84 277 -18 312 -22 380 -42 37 -11 62 -12 100
-5 27 5 178 12 335 16 299 6 619 25 855 50 917 99 1807 337 2590 695 109 50
404 198 465 234 223 132 450 270 447 272 -2 2 -41 -11 -88 -30 -203 -81 -573
-202 -859 -280 -1574 -432 -3097 -406 -4630 79 -959 302 -1829 762 -2577 1362
-266 213 -686 607 -883 827 -159 178 -198 223 -306 356 -968 1193 -1558 2547
-1758 4030 -224 1662 92 3367 901 4861 513 946 1157 1734 1948 2384 710 583
1573 1057 2520 1382 1362 468 2743 563 4125 283 354 -72 650 -150 1005 -266
198 -65 575 -203 627 -230 39 -20 51 -18 36 7 -35 58 -684 405 -1071 573 -844
367 -1734 590 -2669 671 -164 14 -683 36 -773 33 -22 -1 -137 -5 -255 -9z"/>
<path d="M19010 31739 c-350 -32 -658 -179 -915 -435 -167 -167 -435 -531
-1500 -2039 -831 -1178 -1151 -1637 -1180 -1695 -22 -43 -29 -73 -33 -135 -4
-76 0 -94 81 -385 47 -168 160 -577 251 -910 90 -333 194 -696 230 -806 62
-189 67 -201 89 -197 13 3 38 27 62 61 174 250 2996 4217 2999 4217 4 0 1821
-2651 1891 -2759 l19 -29 -1334 4 c-1268 4 -1338 3 -1399 -14 -164 -47 -276
-131 -393 -296 -34 -47 -167 -241 -296 -431 -211 -309 -325 -471 -591 -835
l-80 -110 1924 -3 c1058 -1 2792 -1 3853 0 l1930 3 -490 715 c-1099 1602
-1806 2627 -2613 3785 -188 270 -462 663 -610 875 -543 781 -728 1008 -944
1163 -272 196 -612 288 -951 256z"/>
<path d="M30490 31683 c-614 -50 -731 -65 -925 -120 -288 -80 -565 -223 -805
-414 -145 -115 -523 -474 -1075 -1019 -524 -518 -557 -549 -591 -560 -25 -8
-40 -8 -66 3 -19 8 -151 132 -309 288 -902 897 -1292 1277 -1384 1350 -300
238 -629 373 -1010 418 -49 5 -241 13 -425 16 -409 7 -1795 -7 -1806 -18 -5
-5 27 -43 71 -85 84 -80 236 -225 420 -402 61 -57 162 -154 225 -215 64 -60
167 -159 230 -219 148 -141 300 -287 475 -456 77 -74 266 -256 420 -405 154
-148 359 -346 455 -440 96 -94 307 -299 469 -455 622 -602 691 -672 691 -704
0 -32 -43 -79 -215 -232 -49 -45 -223 -200 -385 -345 -162 -145 -313 -280
-335 -300 -22 -20 -114 -103 -205 -184 -91 -82 -205 -185 -255 -230 -49 -45
-136 -123 -192 -174 -57 -51 -103 -94 -103 -96 0 -4 959 -1387 969 -1398 5 -4
48 29 97 75 50 46 137 126 194 178 97 88 254 233 291 270 9 8 85 80 170 160
401 379 553 522 654 619 61 58 149 142 195 186 47 43 132 124 190 180 165 157
187 175 218 175 19 0 42 -13 68 -37 22 -21 67 -62 100 -92 146 -134 559 -537
1149 -1122 253 -250 492 -481 531 -511 358 -283 761 -429 1264 -458 85 -5 579
-10 1096 -10 l942 0 6 26 c6 22 -1 33 -41 73 -41 41 -490 456 -848 785 -60 56
-146 135 -190 177 -44 42 -145 136 -225 209 -165 152 -158 146 -535 500 -50
47 -126 118 -170 159 -44 41 -116 108 -160 150 -44 42 -116 110 -160 151 -44
41 -116 108 -160 150 -122 115 -242 227 -330 309 -44 41 -154 145 -245 230
-91 86 -194 183 -230 216 -36 33 -101 94 -145 136 -44 42 -102 95 -128 119
-65 59 -82 93 -67 131 7 16 74 84 149 151 217 196 1054 957 1186 1079 33 31
188 172 345 315 157 142 393 357 525 478 214 196 408 373 439 401 6 6 61 55
121 110 60 55 115 105 121 110 14 13 174 158 334 304 177 162 272 252 268 255
-3 3 -372 31 -683 52 -189 12 -560 16 -675 7z"/>
<path d="M18800 23990 l0 -610 140 0 140 0 0 610 0 610 -140 0 -140 0 0 -610z"/>
<path d="M17878 24383 c-31 -87 -124 -345 -207 -574 -83 -229 -151 -420 -151
-423 0 -4 66 -5 147 -4 l146 3 18 55 c11 30 26 74 35 98 l16 42 217 0 217 0
33 -100 32 -100 150 0 c82 0 149 2 149 4 0 2 -13 40 -30 83 -16 43 -95 260
-175 483 -80 223 -161 446 -179 495 l-33 90 -164 3 -164 2 -57 -157z m286
-359 c35 -104 67 -197 71 -206 7 -17 -4 -18 -134 -18 -78 0 -141 3 -141 7 0
12 134 412 137 409 2 -1 32 -88 67 -192z"/>
<path d="M20196 24513 c9 -16 95 -144 190 -287 l172 -258 -121 -192 c-66 -105
-149 -236 -184 -291 l-62 -100 156 -3 c86 -1 160 1 164 5 4 5 46 76 95 158 48
83 92 158 99 167 10 16 27 -4 128 -157 l117 -175 165 0 165 0 -190 285 c-104
157 -190 287 -190 289 0 3 79 130 176 283 97 153 178 284 181 291 4 9 -31 12
-154 12 l-159 0 -98 -170 c-54 -93 -102 -170 -106 -170 -4 0 -58 77 -120 170
l-113 170 -165 0 -164 0 18 -27z"/>
<path d="M21420 23960 l0 -580 140 0 140 0 0 580 0 580 -140 0 -140 0 0 -580z"/>
<path d="M21910 23960 l0 -580 140 0 140 0 0 250 c0 138 3 250 8 249 4 0 92
-112 196 -250 l188 -249 169 0 c93 0 169 3 169 6 0 3 -99 132 -221 286 -121
154 -223 286 -225 292 -3 7 91 134 209 283 118 148 217 275 221 281 5 9 -35
12 -158 12 l-165 0 -186 -245 c-103 -135 -191 -247 -196 -251 -5 -3 -9 97 -9
245 l0 251 -140 0 -140 0 0 -580z"/>
<path d="M23060 23960 l0 -580 140 0 140 0 0 342 c0 188 4 338 8 333 5 -6 64
-160 132 -342 l124 -333 118 0 c69 0 118 4 118 10 0 5 55 157 123 337 l122
328 3 -337 2 -338 140 0 140 0 0 580 0 580 -164 0 -164 0 -117 -292 c-65 -161
-136 -339 -159 -395 -22 -57 -43 -103 -46 -103 -5 0 -37 79 -251 607 l-74 183
-167 0 -168 0 0 -580z"/>
<path d="M24858 24383 c-31 -87 -124 -345 -207 -574 -83 -229 -151 -419 -151
-423 0 -4 66 -5 147 -4 l146 3 32 95 32 95 219 3 220 2 32 -100 33 -100 151 0
c116 0 149 3 145 13 -2 6 -82 226 -176 487 -95 261 -187 516 -205 565 l-33 90
-164 3 -164 2 -57 -157z m286 -359 c35 -104 67 -197 71 -206 7 -17 -4 -18
-134 -18 -78 0 -141 3 -141 7 0 13 134 412 137 409 2 -2 32 -88 67 -192z"/>
<path d="M19280 23960 l0 -120 360 0 360 0 0 120 0 120 -360 0 -360 0 0 -120z"/>
<path d="M15760 16855 l0 -1475 340 0 340 0 0 1475 0 1475 -340 0 -340 0 0
-1475z"/>
<path d="M13639 18163 c-6 -16 -87 -239 -181 -498 -93 -258 -208 -576 -255
-705 -47 -129 -132 -365 -190 -525 -57 -159 -133 -369 -168 -465 -170 -471
-205 -568 -205 -574 0 -3 160 -5 356 -4 l357 3 81 240 81 240 524 0 523 0 82
-240 82 -240 363 -3 c343 -2 363 -1 356 15 -8 21 -79 219 -285 788 -282 779
-311 860 -380 1050 -38 105 -126 348 -195 540 -70 193 -132 362 -137 378 l-10
27 -394 0 -394 0 -11 -27z m536 -1133 c70 -206 144 -427 166 -490 21 -63 39
-118 39 -122 0 -4 -153 -8 -341 -8 -269 0 -340 3 -337 13 3 6 79 233 169 504
90 271 167 489 171 485 4 -4 64 -176 133 -382z"/>
<path d="M19110 18185 c0 -3 203 -310 452 -683 249 -372 452 -684 452 -692 0
-11 -678 -1098 -872 -1397 l-14 -23 388 0 389 0 249 425 249 426 283 -426 284
-425 395 0 c217 0 395 2 395 5 0 3 -206 314 -457 691 l-457 686 20 36 c11 21
210 338 442 705 232 368 422 671 422 673 0 2 -174 3 -387 2 l-387 -3 -243
-415 c-133 -228 -246 -416 -250 -417 -5 -1 -133 187 -285 418 l-277 419 -396
0 c-217 0 -395 -2 -395 -5z"/>
<path d="M22110 16790 l0 -1400 340 0 340 0 0 1400 0 1400 -340 0 -340 0 0
-1400z"/>
<path d="M23290 16790 l0 -1400 340 0 340 0 2 613 3 612 165 -217 c91 -119
300 -394 465 -612 l300 -395 419 -1 418 0 -28 38 c-16 20 -256 325 -533 677
-277 352 -516 656 -531 675 l-28 35 100 125 c398 502 974 1233 976 1241 2 5
-153 9 -395 9 l-398 0 -256 -337 c-141 -186 -351 -462 -465 -613 l-209 -275
-3 613 -2 612 -340 0 -340 0 0 -1400z"/>
<path d="M26070 16790 l0 -1400 340 0 340 0 2 832 3 833 311 -830 311 -830
279 -3 279 -2 254 682 c140 376 279 751 310 833 l56 150 3 -832 2 -833 340 0
340 0 0 1400 0 1400 -402 -2 -402 -3 -282 -705 c-156 -388 -329 -821 -386
-962 -57 -142 -105 -258 -108 -258 -3 0 -36 78 -74 173 -38 94 -113 280 -167
412 -54 132 -195 481 -314 775 -119 294 -221 543 -226 553 -9 16 -39 17 -409
17 l-400 0 0 -1400z"/>
<path d="M30559 18163 c-6 -16 -49 -134 -96 -263 -46 -129 -102 -282 -123
-340 -21 -58 -145 -400 -275 -760 -130 -360 -265 -734 -300 -830 -156 -430
-205 -569 -205 -574 0 -4 160 -5 356 -4 l357 3 81 240 81 240 524 0 524 0 81
-240 81 -240 364 -3 c289 -2 362 0 358 10 -2 7 -82 227 -176 488 -95 261 -210
579 -256 705 -46 127 -113 311 -148 410 -141 390 -413 1143 -424 1173 -4 9
-93 12 -399 12 l-394 0 -11 -27z m509 -1053 c55 -162 129 -382 166 -489 36
-107 66 -198 66 -203 0 -4 -153 -8 -341 -8 -269 0 -340 3 -337 13 3 6 79 233
169 504 90 271 167 489 171 485 3 -4 51 -140 106 -302z"/>
<path d="M16900 16780 l0 -280 875 0 875 0 0 280 0 280 -875 0 -875 0 0 -280z"/>
</g>
</svg>
