<svg version="1.1" id="Layer_1" xmlns="http://www.w3.org/2000/svg" xmlns:xlink="http://www.w3.org/1999/xlink" x="0px" y="0px"
	 width="100%" viewBox="0 0 1024 1024" enable-background="new 0 0 1024 1024" xml:space="preserve">
<path fill="#000000" opacity="1.000000" stroke="none" 
	d="
M387.190155,503.822937 
	C415.555145,535.820374 450.771423,554.960144 492.292603,562.594177 
	C526.233093,568.834412 559.197388,564.649170 591.270142,552.344788 
	C592.454407,551.890381 593.583313,550.852844 595.746460,552.536926 
	C571.899597,568.032288 545.990295,575.943115 518.383728,579.619263 
	C490.658417,583.311157 463.542328,580.807617 436.952393,572.758606 
	C354.273315,547.730835 304.289124,477.495148 297.655029,402.353973 
	C288.747894,301.466858 352.647522,225.877594 422.666199,199.758682 
	C462.829132,184.776779 503.709106,182.288544 545.258301,193.002625 
	C563.635559,197.741470 580.896484,205.130203 596.700500,216.263596 
	C548.810486,197.780151 501.154297,196.495575 453.481628,216.314163 
	C405.464722,236.275864 371.698273,270.639252 353.806519,319.109924 
	C328.890564,386.609894 341.216858,448.305725 387.190155,503.822937 
z"/>
<path fill="#000000" opacity="1.000000" stroke="none" 
	d="
M419.720337,418.266357 
	C436.476929,418.330139 452.799957,418.481079 469.123291,418.594299 
	C471.238495,418.608978 473.933044,419.347198 475.103058,417.167603 
	C476.295837,414.945679 474.040039,413.224487 472.858917,411.491547 
	C461.692291,395.108063 450.505920,378.737976 439.313873,362.371857 
	C438.303284,360.894012 437.639709,359.065369 434.646271,358.158752 
	C412.101044,389.766144 389.372375,421.630737 366.750824,453.345184 
	C363.579468,452.119904 363.498138,449.861725 362.989532,448.074188 
	C358.982880,433.993164 355.088531,419.880096 351.190033,405.768494 
	C350.020294,401.534271 350.557587,397.669067 353.187927,393.931946 
	C371.408844,368.043915 389.298187,341.915680 408.286011,316.580170 
	C422.828552,297.175995 448.318085,296.763947 463.420135,315.763611 
	C477.735931,333.774109 490.184113,353.153564 503.330597,372.014709 
	C522.005859,398.808014 540.417358,425.785126 558.916443,452.700989 
	C559.835083,454.037506 561.138245,455.225464 561.153687,457.681763 
	C502.894012,457.681763 444.662689,457.681763 386.505859,457.681763 
	C385.747314,455.650696 386.970917,454.540375 387.788239,453.364014 
	C394.062836,444.333069 400.434448,435.368927 406.651062,426.298462 
	C409.753967,421.771149 413.734406,418.866455 419.720337,418.266357 
z"/>
<path fill="#000000" opacity="1.000000" stroke="none" 
	d="
M664.435547,454.838196 
	C657.529175,451.900299 652.113586,447.573395 647.102905,442.582947 
	C636.715332,432.237152 626.133606,422.085938 615.775024,411.711548 
	C612.808105,408.740082 610.750793,408.649200 607.604065,411.714691 
	C596.031799,422.988190 584.176086,433.971008 572.403015,445.037689 
	C570.595093,446.737152 568.660889,448.302277 567.118652,449.640137 
	C565.641541,449.757599 564.993408,449.228088 564.513306,448.538635 
	C558.041504,439.243042 551.642395,429.896057 545.096375,420.653198 
	C543.105957,417.842834 544.374207,416.255798 546.478638,414.390411 
	C556.700439,405.329468 566.850891,396.187592 576.993286,387.037476 
	C581.881470,382.627533 581.923889,382.227692 577.262573,377.716797 
	C554.277283,355.473022 531.267517,333.254517 508.213531,311.081909 
	C506.572662,309.503815 504.508087,308.366302 503.029175,306.640289 
	C504.363647,304.533691 505.492645,304.641937 506.428070,304.645996 
	C522.074402,304.713837 537.710449,303.234314 553.370605,304.602539 
	C563.910706,305.523438 573.053955,309.346436 580.630188,316.708069 
	C591.502502,327.272491 602.371643,337.843597 613.042297,348.609924 
	C615.924683,351.518158 617.743652,351.666290 620.706116,348.664490 
	C629.831421,339.417999 639.365784,330.576385 648.539490,321.376282 
	C658.448975,311.438354 670.099548,305.555695 684.192444,304.241760 
	C697.970459,302.957153 711.648132,303.071350 725.263550,304.974701 
	C725.632446,307.535736 723.774292,308.198212 722.627747,309.247498 
	C698.912598,330.950531 675.159546,352.612213 651.438293,374.308533 
	C646.465149,378.857056 646.461060,378.956970 651.568665,383.733978 
	C676.024048,406.606415 700.517578,429.438049 724.959167,452.325134 
	C726.596863,453.858673 728.837463,455.018127 729.180481,457.497070 
	C728.621521,459.050598 727.385925,459.089264 726.236694,459.075958 
	C710.257263,458.891327 694.260986,459.935303 678.299011,458.387421 
	C673.614136,457.933105 669.175964,456.585236 664.435547,454.838196 
z"/>
<path fill="#000000" opacity="1.000000" stroke="none" 
	d="
M552.229675,231.871918 
	C514.746887,220.108658 477.739929,219.461975 440.785645,232.700745 
	C477.814728,210.933685 517.511292,204.146332 559.421265,212.777222 
	C610.603027,223.317474 649.363586,251.538269 675.882446,296.537140 
	C673.818542,298.823639 671.867676,298.182343 670.142517,298.202759 
	C662.977844,298.287628 655.810852,298.182831 648.646240,298.271118 
	C639.645813,298.381989 632.624756,294.804108 627.211792,287.600159 
	C613.951172,269.951935 598.035522,255.204880 578.916016,244.028519 
	C570.547058,239.136429 561.752502,235.180527 552.229675,231.871918 
z"/>
<path fill="#000000" opacity="1.000000" stroke="none" 
	d="
M656.957886,497.938660 
	C634.186218,525.405151 605.255554,542.519531 571.615601,552.258179 
	C557.957092,556.212219 543.984558,558.490234 529.844238,558.965637 
	C498.131531,560.031860 468.566833,552.071289 441.020966,536.434021 
	C440.441315,536.104919 439.891266,535.700439 440.043304,534.624451 
	C441.595123,533.740845 443.074310,534.781128 444.529663,535.208313 
	C465.250793,541.291870 486.234955,544.961548 507.997314,543.903870 
	C542.288025,542.237122 572.499329,530.645874 598.877930,508.619751 
	C609.293701,499.922607 618.486328,490.168732 627.199707,479.844330 
	C630.876587,475.487610 632.769409,475.768036 636.319336,480.160797 
	C644.822510,490.683105 647.731628,491.508057 660.194641,486.942627 
	C661.263855,486.550995 662.298706,485.870239 664.118591,486.750244 
	C663.016907,491.110077 659.768860,494.200653 656.957886,497.938660 
z"/>
<path fill="#000000" opacity="1.000000" stroke="none" 
	d="
M617.232422,620.865051 
	C621.330017,630.934265 625.301941,640.640198 629.296814,650.336670 
	C629.470947,650.759399 629.854553,651.095886 630.689758,652.195557 
	C634.781433,642.226807 638.712585,632.775635 642.543518,623.283936 
	C647.634399,610.670349 647.605164,610.852417 661.090088,610.553040 
	C665.964600,610.444824 667.370728,612.048035 667.305115,616.812195 
	C667.066345,634.136841 667.062988,651.468689 667.298462,668.793335 
	C667.364075,673.617065 666.246216,675.640747 660.953003,675.484497 
	C650.367859,675.172180 650.367981,675.456116 650.391846,664.951599 
	C650.407593,658.010986 650.394775,651.070312 650.394775,644.129700 
	C649.932251,644.060608 649.469788,643.991455 649.007263,643.922363 
	C645.856018,652.252502 642.713684,660.586121 639.550415,668.911682 
	C637.381531,674.620117 630.022644,677.646423 624.411865,675.225891 
	C622.739014,674.504089 622.628052,672.900635 622.121704,671.564758 
	C618.406494,661.761841 614.758057,651.933655 610.318115,642.168579 
	C610.318115,651.442627 610.162964,660.720459 610.388977,669.989014 
	C610.489563,674.114990 609.046997,675.512207 604.924011,675.451782 
	C591.459839,675.254517 593.795532,676.552002 593.700684,664.408386 
	C593.578308,648.747437 593.665588,633.084778 593.672729,617.422852 
	C593.675781,610.712341 593.687439,610.712280 600.613708,610.677063 
	C601.113525,610.674500 601.613525,610.663025 602.113220,610.669189 
	C615.486328,610.833801 611.856201,608.856812 617.232422,620.865051 
z"/>
<path fill="#000000" opacity="1.000000" stroke="none" 
	d="
M568.100220,649.929688 
	C574.581665,658.154297 580.848389,666.099060 587.997253,675.162109 
	C580.455078,675.162109 574.108337,675.309753 567.781982,675.017883 
	C566.718262,674.968811 565.640747,673.097290 564.742371,671.934387 
	C559.366333,664.975586 554.041077,657.977661 548.698730,650.992798 
	C548.214966,651.049377 547.731140,651.105957 547.247314,651.162537 
	C547.247314,655.965149 547.258118,660.767700 547.245178,665.570312 
	C547.215027,676.746521 548.311218,675.245483 537.310669,675.374023 
	C530.077942,675.458557 530.020813,675.026123 530.155151,667.775818 
	C530.472595,650.635559 530.604126,633.489014 530.525635,616.346313 
	C530.506042,612.065247 531.657532,610.455566 536.147888,610.592468 
	C549.054565,610.985901 547.068420,608.926819 547.250000,621.751404 
	C547.310608,626.028076 547.259644,630.306274 548.450806,635.098572 
	C551.915100,630.587769 555.384949,626.081116 558.842590,621.565247 
	C568.117249,609.452148 568.115295,609.449158 583.248169,610.648376 
	C584.055420,610.712280 584.922363,610.676880 585.472656,611.632507 
	C585.761414,613.505493 584.182617,614.490723 583.205811,615.741577 
	C577.571289,622.957214 572.153748,630.366760 566.131714,637.245667 
	C562.650085,641.222717 562.415466,644.259277 566.341003,647.692932 
	C566.955872,648.230774 567.375549,648.991943 568.100220,649.929688 
z"/>
<path fill="#000000" opacity="1.000000" stroke="none" 
	d="
M296.834351,649.946106 
	C301.147186,637.988647 305.424469,626.431763 309.449585,614.787659 
	C310.487396,611.785461 312.011322,610.655823 315.204346,610.600220 
	C330.115967,610.340881 330.077820,610.268555 335.020172,624.030334 
	C340.307983,638.753967 345.695557,653.441772 350.981323,668.166077 
	C351.698120,670.162842 352.843994,672.116821 352.239319,675.049377 
	C347.342194,675.693420 342.229614,675.582764 337.186615,675.115417 
	C334.258362,674.844055 334.274170,671.631287 333.781494,669.568420 
	C332.779968,665.375000 330.521332,663.892151 326.299042,664.226013 
	C322.158752,664.553284 317.959045,664.504028 313.810211,664.236145 
	C310.169403,664.001099 308.016266,665.336548 307.464966,668.914978 
	C306.644897,674.237854 303.646973,676.122620 298.386414,675.439941 
	C295.311188,675.040833 292.141785,675.367126 288.291199,675.367126 
	C290.226624,666.164551 294.089264,658.435303 296.834351,649.946106 
M314.952362,650.071106 
	C318.801971,651.378052 322.583466,651.170898 326.949432,649.831360 
	C324.814667,643.537903 322.829224,637.684509 320.512909,630.855713 
	C318.275055,637.757324 315.651459,643.327942 314.952362,650.071106 
z"/>
<path fill="#000000" opacity="1.000000" stroke="none" 
	d="
M734.548096,664.552734 
	C735.453674,668.108337 737.616089,670.915039 737.342957,675.232422 
	C732.439026,675.232422 727.533813,675.424011 722.652954,675.161926 
	C719.630737,674.999634 719.388428,671.974854 718.953247,669.880249 
	C718.037231,665.471619 715.709717,663.703247 711.257019,664.239563 
	C708.960144,664.516235 706.586609,664.465576 704.275574,664.255737 
	C697.852295,663.672546 692.214355,664.053284 691.277466,672.352783 
	C691.081787,674.086548 689.737427,675.309753 687.760254,675.286865 
	C683.145142,675.233582 678.502930,675.800354 674.046265,674.967468 
	C673.036804,673.168213 673.979675,671.837158 674.471130,670.480286 
	C681.153992,652.029663 687.920593,633.608887 694.486938,615.116882 
	C695.590576,612.009094 697.032776,610.639893 700.502197,610.599304 
	C714.855774,610.431396 714.859375,610.317322 719.780457,623.861267 
	C724.663818,637.301147 729.535828,650.745178 734.548096,664.552734 
M704.415894,633.756470 
	C702.665222,639.153687 700.189331,644.359985 699.429138,650.330261 
	C703.789368,650.983765 707.479675,651.324646 711.747742,650.006836 
	C710.369568,644.037415 708.564087,638.438416 706.167786,633.027283 
	C705.808350,632.215637 705.090454,632.564209 704.415894,633.756470 
z"/>
<path fill="#000000" opacity="1.000000" stroke="none" 
	d="
M463.543243,659.904846 
	C460.933563,664.347961 458.486603,668.507996 456.072174,672.686707 
	C455.209076,674.180420 454.302490,675.448792 452.284485,675.425659 
	C447.156586,675.366882 442.027588,675.406128 437.187012,675.406128 
	C435.818634,672.915466 437.337830,671.698303 438.156708,670.387024 
	C442.917084,662.763672 447.545288,655.045166 452.634552,647.645203 
	C455.174866,643.951599 455.363831,641.218689 452.595825,637.481567 
	C447.549896,630.668884 443.099426,623.414795 438.408813,616.339478 
	C437.501678,614.971191 436.373077,613.704590 436.073425,611.045349 
	C441.818237,610.343079 447.569580,610.238159 453.164337,610.981323 
	C456.471008,611.420593 457.328430,615.441284 459.150391,617.940247 
	C461.487610,621.145996 463.591003,624.522095 466.438782,628.789368 
	C469.535522,623.704102 472.420807,619.354248 474.886871,614.778381 
	C476.501251,611.782898 478.464203,610.284912 481.971436,610.626526 
	C486.377991,611.055725 490.859924,610.055298 495.231476,610.918457 
	C495.932098,613.317322 494.279541,614.575012 493.360901,616.042969 
	C488.416748,623.943420 483.485840,631.854980 478.358612,639.636414 
	C476.656860,642.219055 476.582977,644.208252 478.395569,646.806885 
	C483.822479,654.587158 488.998413,662.542419 494.265808,670.433777 
	C495.083435,671.658691 496.243256,672.715881 496.280823,675.100830 
	C490.284210,675.100830 484.268555,675.228577 478.265594,675.009521 
	C476.794525,674.955811 476.072845,673.109863 475.253784,671.859985 
	C472.608246,667.822815 469.931122,663.805725 467.336761,659.735962 
	C466.110718,657.812622 464.990784,657.470032 463.543243,659.904846 
z"/>
<path fill="#000000" opacity="1.000000" stroke="none" 
	d="
M362.332336,607.009277 
	C375.931091,606.986694 375.933228,606.986694 375.958099,620.298340 
	C375.988922,636.779175 375.876556,653.262268 376.133118,669.739502 
	C376.205719,674.400696 374.717224,675.711304 370.095184,675.525085 
	C358.810028,675.070129 358.796051,675.295776 358.795654,663.726074 
	C358.795135,646.745483 358.784515,629.764832 358.826813,612.784363 
	C358.832733,610.405212 358.118561,607.496155 362.332336,607.009277 
z"/>
<path fill="#000000" opacity="1.000000" stroke="none" 
	d="
M580.289429,702.470947 
	C578.015991,706.085205 579.269470,710.088501 579.038513,713.945251 
	C578.760071,718.595337 578.843445,723.272156 578.904785,727.935669 
	C578.946106,731.083435 577.672852,732.405273 574.422424,732.353027 
	C571.241943,732.301941 569.961914,731.119324 569.981934,727.889526 
	C570.057922,715.562439 569.935425,703.234314 569.978699,690.906860 
	C569.985840,688.879028 569.389526,686.137329 572.528259,685.787048 
	C575.403809,685.466125 578.379272,684.777344 580.502075,688.128296 
	C585.760681,696.429138 591.287048,704.560547 596.714722,712.754089 
	C597.347778,713.709717 598.036804,714.628235 599.886536,715.468872 
	C599.886536,709.979553 599.883545,704.490234 599.887878,699.000916 
	C599.890015,696.335327 600.074097,693.657043 599.874878,691.007141 
	C599.601318,687.367981 600.561340,685.542114 604.737549,685.451050 
	C609.209534,685.353577 608.995178,687.894897 608.986755,690.905518 
	C608.953552,702.734131 609.043884,714.563171 608.979858,726.391479 
	C608.968201,728.551514 609.834778,731.534058 606.534119,732.100464 
	C603.614197,732.601562 600.621948,732.790771 598.563171,729.586792 
	C593.071289,721.040039 587.405090,712.605164 581.798035,704.132568 
	C581.433044,703.581055 580.982178,703.086426 580.289429,702.470947 
z"/>
<path fill="#000000" opacity="1.000000" stroke="none" 
	d="
M506.188843,610.757568 
	C520.298401,610.522644 520.287292,610.522644 520.282043,624.228943 
	C520.276306,639.196106 520.140930,654.165894 520.391785,669.128967 
	C520.469788,673.787842 519.240479,675.602417 514.282471,675.482727 
	C503.538788,675.223328 503.555389,675.463928 503.575226,664.666199 
	C503.604919,648.534912 503.566376,632.403503 503.651489,616.272644 
	C503.661835,614.306946 502.707458,611.748108 506.188843,610.757568 
z"/>
<path fill="#000000" opacity="1.000000" stroke="none" 
	d="
M562.507263,700.877197 
	C565.661072,715.369934 560.569092,726.539490 549.080200,730.984375 
	C536.268372,735.941040 522.476257,730.134705 517.634094,717.745850 
	C512.681274,705.073853 518.641785,691.157288 531.025269,686.480530 
	C544.134399,681.529602 557.276489,687.399963 562.507263,700.877197 
M551.736084,719.147522 
	C552.531250,717.513123 553.550720,715.948669 554.085205,714.233032 
	C557.605164,702.934814 549.254517,691.159912 538.743530,692.491272 
	C531.818481,693.368347 526.456543,698.253174 525.342468,704.699768 
	C523.889404,713.107910 526.647278,720.056946 532.710327,723.264465 
	C538.690552,726.428162 545.852661,725.074768 551.736084,719.147522 
z"/>
<path fill="#000000" opacity="1.000000" stroke="none" 
	d="
M486.039307,685.691162 
	C489.363068,685.693726 492.196503,685.651489 495.028015,685.707153 
	C502.675293,685.857483 507.789642,689.547913 509.641113,696.194885 
	C511.397064,702.498962 508.889709,708.226929 502.616455,712.263489 
	C502.071991,712.613770 501.557587,713.010864 500.796173,713.551819 
	C502.830109,719.960144 507.936035,724.754272 509.880096,731.097961 
	C503.517365,733.512268 501.600830,732.903320 498.386536,727.533997 
	C496.248291,723.962158 494.173950,720.351929 492.028107,716.784729 
	C491.140686,715.309448 490.046204,714.000488 488.040833,714.436462 
	C485.780914,714.927795 486.067780,716.839844 486.008942,718.447876 
	C485.893250,721.610718 485.852142,724.777466 485.843170,727.942749 
	C485.834351,731.052917 484.453766,732.344543 481.234589,732.307495 
	C477.950928,732.269592 476.857422,730.879028 476.874207,727.758789 
	C476.941437,715.262756 476.917755,702.765869 476.852539,690.269653 
	C476.814819,683.035278 482.324524,686.591736 486.039307,685.691162 
M485.943359,701.049500 
	C485.098053,705.290894 486.505737,707.429443 491.131378,706.764832 
	C492.603516,706.553284 494.149567,706.817749 495.608704,706.561707 
	C498.529327,706.049133 500.268402,704.178650 500.924408,701.298523 
	C501.528778,698.645020 501.032318,696.168762 498.810150,694.576782 
	C495.433075,692.157349 491.400848,692.302490 487.800995,693.532410 
	C484.824860,694.549316 486.335388,697.871155 485.943359,701.049500 
z"/>
<path fill="#000000" opacity="1.000000" stroke="none" 
	d="
M386.826599,709.872070 
	C387.274994,699.816956 390.731018,691.899963 399.809357,687.450623 
	C408.448792,683.216431 416.912415,683.961121 424.937622,689.143005 
	C428.351501,691.347473 430.916595,694.339355 432.196167,699.082581 
	C427.977356,700.222351 424.323700,701.272095 420.891663,697.336853 
	C416.900116,692.759949 411.895782,691.374756 406.029175,693.502502 
	C400.101501,695.652344 396.845978,699.802246 396.189484,706.060059 
	C394.919403,718.166382 401.757507,725.814758 412.861938,724.711792 
	C415.623932,724.437439 418.344910,723.607727 419.910278,721.415222 
	C423.023773,717.054382 427.020325,717.281738 431.403503,718.215820 
	C431.293945,725.054871 422.984161,731.769043 414.137604,732.315613 
	C398.549011,733.278748 389.219940,725.758545 386.826599,709.872070 
z"/>
<path fill="#000000" opacity="1.000000" stroke="none" 
	d="
M661.999023,685.590210 
	C669.560547,687.503784 674.814026,691.459229 677.704102,699.061768 
	C673.288879,699.921265 669.616028,701.379761 666.339722,697.445374 
	C663.031921,693.473328 658.719482,691.698853 653.465271,692.833618 
	C647.352661,694.153809 643.449341,697.885742 641.742676,703.826904 
	C638.397644,715.471130 646.194763,725.507019 657.830994,724.758789 
	C660.845642,724.564880 663.626343,723.573059 665.295593,721.288818 
	C668.472229,716.942017 672.516846,717.477539 676.827759,718.102417 
	C676.601013,727.153748 665.191772,733.560120 652.011902,732.280640 
	C639.184814,731.035522 630.687439,718.518677 632.769165,703.935608 
	C634.623291,690.947021 647.822388,682.510315 661.999023,685.590210 
z"/>
<path fill="#000000" opacity="1.000000" stroke="none" 
	d="
M685.384155,724.038818 
	C684.854736,721.933716 683.847412,719.635864 686.316406,719.057190 
	C688.894714,718.453003 692.164795,717.416687 693.888428,720.732605 
	C695.825256,724.458862 698.858521,725.317993 702.645630,724.878662 
	C705.560486,724.540527 707.793762,723.182129 708.481384,720.249817 
	C709.228638,717.063354 707.189880,715.109802 704.596985,714.075500 
	C700.748169,712.540405 696.670227,711.583679 692.807434,710.078796 
	C686.525452,707.631348 684.056213,703.380981 684.737366,696.803711 
	C685.496094,689.477661 692.311035,684.482056 701.151306,684.771790 
	C710.093323,685.064819 715.956726,689.973938 716.148010,697.619446 
	C712.256653,698.588867 708.789124,699.324463 705.830322,695.000671 
	C703.966675,692.277283 700.591064,691.548828 697.271423,693.016724 
	C695.193787,693.935425 693.605408,695.402039 693.427856,697.831055 
	C693.243103,700.356873 694.742615,701.965515 696.884521,702.785889 
	C700.605225,704.211060 704.455139,705.296814 708.187439,706.694275 
	C715.268860,709.345764 718.193665,714.032959 717.195618,720.854431 
	C716.294250,727.014954 711.093750,731.763550 704.481323,732.283508 
	C696.860291,732.882751 689.702698,732.223694 685.384155,724.038818 
z"/>
<path fill="#000000" opacity="1.000000" stroke="none" 
	d="
M311.791443,724.790405 
	C313.087555,724.822449 313.919617,724.831604 314.748688,724.886047 
	C317.463562,725.064514 317.844177,726.988525 317.827301,729.126343 
	C317.808777,731.461548 316.415527,732.272034 314.252869,732.263672 
	C307.767181,732.238525 301.281250,732.236328 294.795593,732.265137 
	C292.557037,732.275085 291.458893,731.393372 291.476654,729.006958 
	C291.574310,715.881104 291.625610,702.754761 291.618439,689.628540 
	C291.616974,686.975952 292.537872,685.615906 295.369843,685.652832 
	C301.688354,685.735413 308.009338,685.746155 314.327728,685.664001 
	C317.001282,685.629211 317.818298,687.022278 317.825714,689.373657 
	C317.834442,692.140686 316.209015,692.568726 313.867096,692.460876 
	C310.548035,692.308167 307.213867,692.313416 303.892120,692.426453 
	C298.596527,692.606567 300.533325,696.745972 300.245728,699.521851 
	C299.957062,702.308167 300.069672,705.022766 304.159546,704.778198 
	C306.645172,704.629578 309.148468,704.804810 311.641144,704.736511 
	C314.155945,704.667664 315.869904,705.365112 315.860016,708.295959 
	C315.849884,711.298401 314.316254,712.458679 311.451355,712.268250 
	C310.292633,712.191101 309.123993,712.266418 307.959869,712.267944 
	C300.287384,712.277710 298.566467,714.563354 300.257477,722.206055 
	C300.662720,724.037476 301.647278,724.728149 303.344116,724.745544 
	C306.004608,724.772766 308.665344,724.775208 311.791443,724.790405 
z"/>
<path fill="#000000" opacity="1.000000" stroke="none" 
	d="
M354.752960,713.998901 
	C354.757111,705.837280 354.883728,698.172607 354.713715,690.514465 
	C354.631592,686.813965 356.074707,685.492249 359.715698,685.605896 
	C365.705811,685.792908 371.707947,685.712524 377.702148,685.595764 
	C380.244385,685.546204 381.356415,686.445862 381.280548,689.065491 
	C381.207825,691.577148 380.258972,692.675049 377.633453,692.528442 
	C374.312592,692.343018 370.973022,692.361816 367.645752,692.450562 
	C361.966431,692.601990 363.659027,696.954468 363.326324,700.174683 
	C362.965393,703.668396 364.498230,705.036072 367.948975,704.785706 
	C370.433899,704.605347 372.944336,704.811707 375.441132,704.751221 
	C378.192993,704.684570 379.327271,705.933044 379.251801,708.689758 
	C379.181732,711.249390 377.990021,712.287659 375.539001,712.244019 
	C373.374634,712.205444 371.189270,712.445496 369.047546,712.226379 
	C364.713470,711.783142 363.112793,713.482422 363.241821,717.896545 
	C363.442993,724.778076 363.208069,724.782166 370.128510,724.789246 
	C372.626862,724.791809 375.125641,724.844177 377.623474,724.813782 
	C380.126221,724.783386 381.239044,725.970398 381.243622,728.465942 
	C381.248077,730.881104 380.342926,732.255066 377.763397,732.246887 
	C371.267883,732.226440 364.772217,732.222717 358.276733,732.247986 
	C355.705200,732.257996 354.745453,730.901733 354.760742,728.489746 
	C354.790283,723.826233 354.759338,719.162292 354.752960,713.998901 
z"/>
<path fill="#000000" opacity="1.000000" stroke="none" 
	d="
M533.345093,485.365082 
	C532.402039,488.481537 535.132507,493.227295 529.089966,493.388062 
	C526.234558,493.464020 524.736572,492.491791 524.788513,489.399353 
	C524.894531,483.083984 524.820557,476.765717 524.859863,470.448914 
	C524.872375,468.437347 524.792419,466.145294 527.574890,465.947327 
	C530.272217,465.755493 533.348022,464.823456 534.820923,468.475342 
	C536.483582,472.597778 538.252075,476.677521 540.210327,481.336914 
	C543.398376,477.558777 544.675232,473.617462 545.968689,469.801727 
	C547.309631,465.845673 550.131226,465.475189 553.462524,465.837311 
	C557.380798,466.263306 556.170105,469.421448 556.252075,471.658417 
	C556.458862,477.303680 556.336548,482.960785 556.534058,488.606598 
	C556.635376,491.501099 556.080933,493.487396 552.682739,493.684662 
	C549.211487,493.886230 548.362427,492.039795 548.608643,489.051727 
	C548.687622,488.092804 548.704285,487.070923 547.857910,486.263885 
	C545.739319,487.113861 545.668518,489.165070 544.996399,490.731171 
	C544.047668,492.941620 542.410522,493.440857 540.234741,493.515747 
	C537.915955,493.595551 537.162598,492.249817 536.349609,490.427368 
	C535.534424,488.600098 535.580383,486.227509 533.345093,485.365082 
z"/>
<path fill="#000000" opacity="1.000000" stroke="none" 
	d="
M400.005005,650.275635 
	C395.845825,650.268311 392.185394,650.231506 388.525543,650.262756 
	C386.102203,650.283447 384.744110,649.271118 384.780457,646.729980 
	C384.782837,646.563965 384.769867,646.397278 384.756409,646.231567 
	C383.931458,636.070679 384.133240,635.852905 394.262299,635.855957 
	C403.080292,635.858643 411.900848,635.979370 420.715118,635.797180 
	C424.710144,635.714600 426.727753,636.996094 426.251526,641.231079 
	C426.103729,642.545349 426.113708,643.902832 426.252838,645.219177 
	C426.678070,649.242981 424.739410,650.428467 420.966919,650.322021 
	C414.150940,650.129700 407.325500,650.272278 400.005005,650.275635 
z"/>
<path fill="#000000" opacity="1.000000" stroke="none" 
	d="
M458.888489,719.855469 
	C458.731934,722.963013 458.364838,725.624634 458.479950,728.265259 
	C458.608215,731.207764 457.729950,732.533875 454.563080,732.398621 
	C451.605255,732.272339 449.887909,731.522339 449.911346,728.130493 
	C449.977875,718.492371 449.622192,708.846008 449.908539,699.217041 
	C450.049957,694.462463 448.556671,692.381287 443.735016,692.861755 
	C442.108398,693.023804 440.358093,693.146484 438.905212,692.116333 
	C437.437195,691.075378 437.746887,689.472717 437.913147,688.009216 
	C438.134827,686.057739 439.640503,685.759705 441.211823,685.754333 
	C450.019623,685.724182 458.827545,685.740112 467.635284,685.702148 
	C469.930237,685.692200 470.990417,686.767517 470.959778,689.029968 
	C470.931915,691.084595 470.263641,692.497131 467.950500,692.862305 
	C465.077209,693.315796 461.467896,691.605469 459.442902,694.275757 
	C457.099670,697.365784 458.686859,701.375549 458.579468,704.964478 
	C458.435730,709.769043 458.764709,714.587708 458.888489,719.855469 
z"/>
<path fill="#000000" opacity="1.000000" stroke="none" 
	d="
M325.693634,706.000305 
	C325.694946,701.005676 325.674316,696.510864 325.703735,692.016296 
	C325.724060,688.909790 324.989594,685.574768 330.149445,685.621643 
	C335.075592,685.666443 334.267426,688.871399 334.280029,691.759827 
	C334.320709,701.082031 334.454834,710.408447 334.224396,719.725098 
	C334.126099,723.698547 335.535370,725.186035 339.424683,724.840637 
	C341.734375,724.635437 344.081238,724.853577 346.411438,724.873047 
	C348.977325,724.894531 349.890533,726.409424 349.936584,728.733582 
	C349.987091,731.281616 348.649994,732.289246 346.210938,732.272034 
	C340.717743,732.233276 335.223083,732.195312 329.731049,732.284485 
	C326.662842,732.334290 325.673035,730.824036 325.699799,727.974548 
	C325.767059,720.817078 325.703918,713.658386 325.693634,706.000305 
z"/>
<path fill="#000000" opacity="1.000000" stroke="none" 
	d="
M514.868530,477.835754 
	C513.495056,481.145233 515.931946,482.737640 517.291992,484.691254 
	C519.057739,487.227722 520.981873,489.653870 522.940063,492.263702 
	C515.080261,496.147400 511.840820,490.285828 508.309418,486.013214 
	C506.446838,486.823059 506.503235,488.031860 506.655762,489.176758 
	C507.107574,492.567505 505.464050,493.454590 502.327057,493.471832 
	C498.860962,493.490875 498.679047,491.527313 498.714233,488.943085 
	C498.798065,482.786255 498.834686,476.627106 498.758453,470.470490 
	C498.721832,467.513428 499.493408,465.759033 502.922058,465.732697 
	C506.395874,465.706085 506.633667,467.664978 506.446472,470.277435 
	C506.366150,471.398895 506.171783,472.637939 507.677307,473.765137 
	C511.911774,470.666168 514.028870,462.706390 522.417908,466.816803 
	C520.916687,470.990234 517.078064,473.704651 514.868530,477.835754 
z"/>
<path fill="#000000" opacity="1.000000" stroke="none" 
	d="
M580.214050,493.354919 
	C576.555054,492.813751 575.229004,488.342194 571.214905,489.286652 
	C569.801514,489.619202 567.899353,489.023834 567.114014,490.501038 
	C564.980896,494.513153 561.798157,493.443207 558.538269,492.857697 
	C557.592102,489.559692 559.790466,487.295898 560.644165,484.723846 
	C562.264038,479.843475 564.263489,475.088654 565.868591,470.203888 
	C566.888000,467.101776 568.557373,465.683563 571.989624,465.673889 
	C575.430176,465.664215 576.515076,467.511536 577.455383,470.266083 
	C579.963074,477.611572 582.659790,484.892456 585.181824,491.921722 
	C583.643921,493.778748 582.057800,493.226227 580.214050,493.354919 
z"/>
<path fill="#000000" opacity="1.000000" stroke="none" 
	d="
M479.208801,477.233704 
	C477.660370,479.553680 478.420837,481.270782 479.613770,483.046356 
	C481.634216,486.053650 483.536102,489.140564 485.524048,492.250671 
	C480.261719,494.265503 480.261719,494.265503 471.978455,487.911896 
	C469.401581,491.991760 466.289520,495.268799 460.651062,492.548706 
	C460.956757,489.255310 463.244110,486.896423 464.985413,484.399750 
	C467.290680,481.094421 467.582214,478.307800 464.948303,474.995453 
	C463.048004,472.605774 461.045105,470.104584 460.110474,466.801605 
	C465.927887,463.928619 469.296204,466.992706 472.433350,471.841187 
	C476.005829,468.096497 479.026398,463.313568 485.192932,466.787903 
	C484.115540,470.642365 481.002869,473.377838 479.208801,477.233704 
z"/>
<path fill="#000000" opacity="1.000000" stroke="none" 
	d="
M400.261261,489.067322 
	C402.690063,482.492035 405.068817,476.286316 407.208832,469.999390 
	C408.209015,467.061096 409.873810,465.773438 413.034332,465.721619 
	C416.131744,465.670837 417.458862,467.163452 418.381195,469.812317 
	C420.986450,477.294312 423.735748,484.726166 426.528473,492.455139 
	C422.824646,493.538208 420.152740,494.239166 417.608276,490.983429 
	C415.238007,487.950592 410.261078,488.442627 407.398041,491.781799 
	C405.348053,494.172791 402.787750,493.659790 400.543274,493.149017 
	C398.366852,492.653748 399.811768,490.740387 400.261261,489.067322 
M413.316162,482.487579 
	C414.259186,480.049469 414.259186,480.049469 412.517212,477.630676 
	C411.128204,480.829651 411.128204,480.829651 413.316162,482.487579 
z"/>
<path fill="#000000" opacity="1.000000" stroke="none" 
	d="
M626.257141,720.972290 
	C626.246521,723.459106 626.144348,725.455505 626.249695,727.440857 
	C626.419128,730.631714 625.474609,732.333374 621.807861,732.361816 
	C618.009155,732.391174 617.542480,730.566040 617.576294,727.412659 
	C617.708130,715.133606 617.688721,702.851807 617.595947,690.572083 
	C617.572266,687.435913 618.195190,685.639099 621.929810,685.617432 
	C625.739685,685.595337 626.276428,687.536499 626.256165,690.605408 
	C626.190369,700.562134 626.248352,710.519592 626.257141,720.972290 
z"/>
<path fill="#000000" opacity="1.000000" stroke="none" 
	d="
M436.142334,483.940704 
	C436.101349,486.258362 436.055389,488.085114 436.035339,489.912170 
	C436.003265,492.831604 434.231506,493.395172 431.725372,493.376007 
	C429.238800,493.356964 427.982422,492.332367 427.992920,489.845367 
	C428.022980,482.702271 428.072968,475.559265 428.103271,468.416168 
	C428.114716,465.710999 429.407898,464.641937 432.139404,464.657013 
	C434.897369,464.672150 436.085846,465.788361 436.074860,468.498444 
	C436.054626,473.482086 436.119507,478.466095 436.142334,483.940704 
z"/>
<path fill="#000000" opacity="1.000000" stroke="none" 
	d="
M515.031921,507.002350 
	C515.634705,503.425781 513.385315,498.708679 516.930969,497.510559 
	C521.160400,496.081482 521.731812,501.502106 523.898071,503.934570 
	C524.952820,505.118927 525.868958,506.426666 527.739197,508.818481 
	C527.739197,505.028076 527.701477,502.603394 527.753967,500.180634 
	C527.783264,498.825653 527.929504,497.367615 529.764771,497.342865 
	C531.208191,497.323395 531.867432,498.497955 531.899780,499.662872 
	C532.037781,504.635254 532.044983,509.612091 532.032043,514.587158 
	C532.029297,515.635986 531.463379,516.518555 530.373718,516.817444 
	C528.873718,517.228882 527.783325,516.475037 526.970764,515.329590 
	C524.780457,512.241943 522.639099,509.119598 519.423279,506.098236 
	C519.423279,508.791138 519.432312,511.484070 519.419189,514.176941 
	C519.413330,515.391968 519.246338,516.617920 517.759094,516.818665 
	C516.051697,517.049072 515.311951,515.875427 515.205444,514.440613 
	C515.033875,512.127319 515.079163,509.798004 515.031921,507.002350 
z"/>
<path fill="#000000" opacity="1.000000" stroke="none" 
	d="
M485.416321,496.955322 
	C491.815918,499.680298 492.779236,502.174896 489.463470,507.675720 
	C488.414886,509.415283 488.512177,510.655823 489.414154,512.201782 
	C490.141357,513.448181 491.291290,514.598572 490.582214,516.503967 
	C485.069305,518.341125 485.669708,511.365173 482.229675,510.277588 
	C480.844421,511.631134 481.547089,513.236450 481.260681,514.631470 
	C481.001709,515.893066 480.504669,516.869202 479.061340,516.815918 
	C477.637299,516.763306 476.980469,515.742554 476.971893,514.496643 
	C476.937744,509.532349 476.468933,504.486542 477.196533,499.625916 
	C477.887970,495.006714 482.162048,497.256989 485.416321,496.955322 
M481.474487,504.136841 
	C482.932251,506.530457 484.656464,506.147980 486.177368,504.355621 
	C487.020996,503.361450 486.750092,502.005981 485.438446,501.496735 
	C483.556213,500.765961 481.806000,500.815857 481.474487,504.136841 
z"/>
<path fill="#000000" opacity="1.000000" stroke="none" 
	d="
M505.510864,517.001587 
	C499.867126,517.568726 495.981995,515.543274 493.907349,510.641388 
	C492.167816,506.531281 493.016388,502.684509 496.170105,499.621979 
	C499.481720,496.406128 503.500122,495.781952 507.707214,497.753723 
	C511.761841,499.653992 513.514771,503.013306 513.347595,507.458771 
	C513.160400,512.436462 510.559906,515.470032 505.510864,517.001587 
M506.437500,512.081543 
	C507.903198,511.087128 508.626160,509.669586 508.871094,507.943848 
	C509.399811,504.218353 507.192719,500.691559 503.912567,500.618805 
	C500.162567,500.535522 498.183746,503.003174 497.573120,506.396301 
	C496.787689,510.760864 500.199615,513.196777 506.437500,512.081543 
z"/>
<path fill="#000000" opacity="1.000000" stroke="none" 
	d="
M495.332153,488.848389 
	C495.583679,492.332581 494.210510,493.468597 491.220764,493.385345 
	C488.230682,493.302063 487.684479,491.674286 487.697388,489.176758 
	C487.730927,482.700073 487.751434,476.220001 487.572205,469.746979 
	C487.495209,466.967957 488.513977,465.812164 491.272766,465.752838 
	C494.261200,465.688629 495.430664,466.965912 495.375763,469.929443 
	C495.261993,476.072784 495.339264,482.219696 495.332153,488.848389 
z"/>
<path fill="#000000" opacity="1.000000" stroke="none" 
	d="
M546.273804,509.847778 
	C548.668823,513.436523 551.535828,513.535156 554.709839,511.766205 
	C556.414368,510.816284 557.986267,509.306793 560.073669,510.925079 
	C558.587769,515.422363 554.930969,517.743530 550.296387,517.183411 
	C545.064880,516.551270 541.029724,512.171692 540.979614,507.071655 
	C540.933594,502.388489 544.439087,497.993439 549.077820,496.918365 
	C553.787598,495.826782 558.201782,498.171173 560.123901,502.844086 
	C558.305359,503.943878 556.623108,503.473022 555.085632,502.318207 
	C552.839294,500.630981 550.538879,500.150513 548.239258,502.026367 
	C545.838440,503.984802 544.713501,506.422089 546.273804,509.847778 
z"/>
<path fill="#000000" opacity="1.000000" stroke="none" 
	d="
M440.825195,511.737183 
	C438.610077,504.827515 440.709686,499.536530 446.203979,497.384888 
	C451.244293,495.411041 456.199890,497.420685 458.404205,502.412262 
	C456.482666,504.197784 454.820831,503.114624 453.195526,501.911743 
	C450.407806,499.848572 447.792480,500.342896 445.719543,502.814148 
	C443.559448,505.389313 443.473389,508.459015 445.601044,511.038361 
	C447.684326,513.563904 450.543976,513.532349 453.246307,511.890533 
	C454.947510,510.856934 456.458679,509.424652 458.743713,511.277893 
	C457.945587,515.163025 454.881348,516.444031 451.611053,516.975342 
	C447.137177,517.702209 443.490143,516.005432 440.825195,511.737183 
z"/>
<path fill="#000000" opacity="1.000000" stroke="none" 
	d="
M563.121216,512.762268 
	C564.252136,509.824097 565.868286,510.840729 567.481384,511.837128 
	C569.132385,512.856934 570.757263,513.596497 572.192566,511.417175 
	C571.488037,509.027313 569.275330,508.916138 567.486084,508.266815 
	C564.788940,507.287933 562.677246,505.875641 562.799988,502.623291 
	C562.908081,499.758942 564.618652,497.949280 567.148560,497.122131 
	C570.197449,496.125366 573.094360,496.656250 575.373657,499.126709 
	C576.191040,500.012604 576.787781,501.161499 575.947937,502.277802 
	C574.890747,503.683136 573.611389,503.093933 572.441528,502.295288 
	C570.965027,501.287323 569.125122,499.455109 567.994019,502.080872 
	C567.038025,504.300079 569.671448,504.460358 571.065674,505.026672 
	C574.059937,506.242981 577.299316,507.334503 576.983765,511.365417 
	C576.757080,514.260254 574.888062,516.326904 572.000305,516.929932 
	C568.284119,517.705872 565.036987,516.927307 563.121216,512.762268 
z"/>
<path fill="#000000" opacity="1.000000" stroke="none" 
	d="
M426.696472,504.100037 
	C427.122894,501.231018 425.456116,497.673004 429.377289,497.133606 
	C432.234283,496.740631 435.823456,495.258209 437.960999,498.941803 
	C436.741852,500.983093 435.068726,500.177216 433.689697,500.388245 
	C432.387146,500.587555 431.481812,501.167786 431.395905,502.555359 
	C431.304047,504.039368 432.262878,504.551849 433.564148,504.718109 
	C435.003021,504.901917 436.897186,504.707062 436.966248,506.775299 
	C437.042786,509.067383 435.128357,508.594421 433.690857,508.650391 
	C432.374512,508.701630 431.404816,509.239258 431.368896,510.689117 
	C431.325073,512.457153 432.585907,512.809082 434.009705,512.992065 
	C435.569214,513.192566 437.900146,512.794922 437.761841,515.147766 
	C437.607117,517.779419 435.103485,517.083618 433.419891,517.148926 
	C427.100922,517.394104 426.656403,516.918884 426.677734,510.562042 
	C426.684418,508.568939 426.689880,506.575806 426.696472,504.100037 
z"/>
<path fill="#000000" opacity="1.000000" stroke="none" 
	d="
M410.050842,497.033447 
	C412.382324,499.197327 411.850769,500.323547 409.127655,500.486847 
	C407.378082,500.591705 405.105560,499.853241 404.954529,502.617615 
	C404.812134,505.224274 407.078033,504.547943 408.581329,504.788177 
	C409.794769,504.982117 410.965515,505.279449 410.909332,506.806671 
	C410.852356,508.354065 409.655884,508.596741 408.427368,508.574524 
	C406.878906,508.546478 405.229584,508.416626 405.229187,510.611023 
	C405.228851,512.621460 406.809875,512.837463 408.355133,513.032227 
	C409.814606,513.216187 411.755951,513.236694 411.571716,515.265381 
	C411.359406,517.602844 409.206543,517.070129 407.634430,517.125000 
	C400.761993,517.364502 400.585754,517.181335 400.668396,510.557709 
	C400.689056,508.901276 400.673706,507.244354 400.675934,505.587677 
	C400.688110,496.514160 400.688232,496.514160 410.050842,497.033447 
z"/>
<path fill="#000000" opacity="1.000000" stroke="none" 
	d="
M471.477051,496.813110 
	C473.502747,496.960602 474.903290,497.310913 474.644318,499.759766 
	C468.693604,500.651794 470.516510,505.358765 470.067871,509.226257 
	C469.767822,511.812744 471.975800,516.504211 467.709320,516.433167 
	C464.200073,516.374695 466.282135,511.790680 465.707336,509.262634 
	C464.902863,505.724487 468.431732,500.164642 460.089630,500.092773 
	C463.357025,494.847412 467.720551,497.607941 471.477051,496.813110 
z"/>
<path fill="#000000" opacity="1.000000" stroke="none" 
	d="
M442.276489,476.672119 
	C446.408203,476.650909 450.068573,476.649109 453.728851,476.660736 
	C455.676727,476.666931 456.942291,477.493256 456.950195,479.592163 
	C456.957916,481.648132 456.279297,483.230072 453.860504,483.236176 
	C450.034210,483.245850 446.207703,483.226562 442.381470,483.194641 
	C440.515839,483.179108 439.105011,482.489044 438.907135,480.416290 
	C438.705750,478.306946 439.388550,476.805725 442.276489,476.672119 
z"/>
<path fill="#000000" opacity="1.000000" stroke="none" 
	d="
M423.782257,513.533447 
	C425.260864,514.653381 425.340332,515.897827 424.077301,516.518188 
	C421.596710,517.736633 418.841003,517.491333 416.332794,516.664429 
	C414.102081,515.928955 414.719788,513.649475 414.698120,511.909180 
	C414.648529,507.929321 414.704712,503.947632 414.761505,499.967285 
	C414.778687,498.762848 415.059113,497.475586 416.469269,497.309784 
	C418.164062,497.110504 418.824524,498.397217 418.885101,499.824615 
	C419.011536,502.805023 419.185883,505.807648 418.961151,508.772400 
	C418.700348,512.213379 419.976074,513.758362 423.782257,513.533447 
z"/>
<path fill="#000000" opacity="1.000000" stroke="none" 
	d="
M534.780640,513.598938 
	C534.780396,508.841309 534.766479,504.541077 534.836975,500.242218 
	C534.862671,498.675629 535.244080,497.110687 537.260254,497.201233 
	C539.005371,497.279572 539.231750,498.744293 539.240234,500.106323 
	C539.268860,504.736389 539.255066,509.367035 539.214783,513.997070 
	C539.204224,515.204102 538.875854,516.448547 537.524658,516.707581 
	C535.523926,517.091248 534.990662,515.684692 534.780640,513.598938 
z"/>
</svg>