<?xml version="1.0" encoding="UTF-8"?>
<svg version="1.1" xmlns="http://www.w3.org/2000/svg" width="130" height="244">
<path d="M0 0 C1.90625 1.66796875 1.90625 1.66796875 3 3 C1.741875 2.67 0.48375 2.34 -0.8125 2 C-16.81179162 -1.14068598 -31.89585537 0.4875808 -45.75390625 9.37890625 C-56.89433038 17.41938627 -62.4085377 28.67871906 -65 42 C-66.63237841 56.04178568 -62.5134598 68.83966406 -54 80 C-53.02473578 81.02413851 -52.03397278 82.03516826 -51 83 C-50.90912109 82.07767578 -50.90912109 82.07767578 -50.81640625 81.13671875 C-50.73261719 80.32847656 -50.64882813 79.52023438 -50.5625 78.6875 C-50.48128906 77.88699219 -50.40007813 77.08648437 -50.31640625 76.26171875 C-50 74 -50 74 -49 71 C-47.515 70.505 -47.515 70.505 -46 70 C-45.01 71.485 -45.01 71.485 -44 73 C-43.505 71.515 -43.505 71.515 -43 70 C-42.01 70 -41.02 70 -40 70 C-40 70.99 -40 71.98 -40 73 C-38.35 73 -36.7 73 -35 73 C-35 73.99 -35 74.98 -35 76 C-36.65 76 -38.3 76 -40 76 C-39.67 76.99 -39.34 77.98 -39 79 C-37.35 79.33 -35.7 79.66 -34 80 C-35.98 80.495 -35.98 80.495 -38 81 C-38 81.66 -38 82.32 -38 83 C-36.68 83.33 -35.36 83.66 -34 84 C-37.38733877 84.90329034 -40.02893179 84.99949242 -43.5625 84.9375 C-46.8304831 84.59910457 -46.8304831 84.59910457 -48 86 C-33.19324238 95.827494 -18.22851279 98.41879056 -0.8125 95 C0.445625 94.67 1.70375 94.34 3 94 C-6.83730228 102.51373797 -19.33196343 103.0425372 -31.77734375 102.22753906 C-46.24956501 100.74598038 -58.86123397 93.05370337 -68 82 C-76.65779662 69.64103608 -80.66131122 55.76996766 -78.5390625 40.734375 C-75.82779308 26.25300659 -69.30262785 13.6288223 -57.30859375 4.74755859 C-40.08781477 -6.82445815 -18.89915651 -9.01774269 0 0 Z M-48 77 C-47.67 77.99 -47.34 78.98 -47 80 C-46.34 79.34 -45.68 78.68 -45 78 C-45.99 77.67 -46.98 77.34 -48 77 Z M-45 79 C-45 80.32 -45 81.64 -45 83 C-44.34 83 -43.68 83 -43 83 C-43 81.68 -43 80.36 -43 79 C-43.66 79 -44.32 79 -45 79 Z " fill="#113577" transform="translate(82,120)"/>
<path d="M0 0 C3.65553286 2.53815265 6.13247143 5.23982471 8.63671875 8.89453125 C9.29220703 9.84376465 9.94769531 10.79299805 10.62304688 11.77099609 C11.30431641 12.77469238 11.98558594 13.77838867 12.6875 14.8125 C13.39068359 15.83682129 14.09386719 16.86114258 14.81835938 17.91650391 C16.88813783 20.93817176 18.94614778 23.96749052 21 27 C21.5667041 27.83418457 22.1334082 28.66836914 22.71728516 29.52783203 C24.1499913 31.64016097 25.57741514 33.75584459 27 35.875 C27.41467529 36.49221924 27.82935059 37.10943848 28.2565918 37.74536133 C31 41.87694247 31 41.87694247 31 43 C14.83 43 -1.34 43 -18 43 C-11 32 -11 32 -6.59765625 30.70703125 C-4.34179688 30.67773438 -4.34179688 30.67773438 -2.0625 30.8125 C-1.28326172 30.81443359 -0.50402344 30.81636719 0.29882812 30.81835938 C2.20014724 30.83002391 4.10086537 30.90814084 6 31 C4.54970675 28.82754427 3.09044056 26.66219911 1.625 24.5 C1.2125 23.87996094 0.8 23.25992188 0.375 22.62109375 C-0.69899668 21.04474379 -1.84488532 19.51791243 -3 18 C-3.66 18 -4.32 18 -5 18 C-6.43509146 19.72674937 -6.43509146 19.72674937 -7.86328125 21.98046875 C-8.42080078 22.81513672 -8.97832031 23.64980469 -9.55273438 24.50976562 C-10.13345703 25.39341797 -10.71417969 26.27707031 -11.3125 27.1875 C-18.20461972 37.65446778 -18.20461972 37.65446778 -23 42 C-25.30591786 36.4858486 -27.53332284 31.08135332 -27 25 C-25.42247478 21.55947879 -23.23386531 18.75606277 -20.875 15.8125 C-20.29234375 15.04486328 -19.7096875 14.27722656 -19.109375 13.48632812 C-17.43673578 11.29802098 -15.7262082 9.14616632 -14 7 C-13.5246582 6.38946777 -13.04931641 5.77893555 -12.55957031 5.14990234 C-8.82824364 0.45425306 -5.97533173 -0.59753317 0 0 Z " fill="#10357A" transform="translate(45,146)"/>
<path d="M0 0 C-4.16798101 5.0336386 -8.54280681 9.54413855 -13.375 13.9375 C-14.33599609 14.82018555 -14.33599609 14.82018555 -15.31640625 15.72070312 C-16.87431658 17.1507253 -18.43668698 18.57588609 -20 20 C-19.2884375 20.71027344 -18.576875 21.42054688 -17.84375 22.15234375 C-15.98256611 24.01287229 -14.13017014 25.88107766 -12.28125 27.75390625 C-11.3634375 28.68074219 -10.445625 29.60757813 -9.5 30.5625 C-8.5821875 31.49191406 -7.664375 32.42132813 -6.71875 33.37890625 C-4.06407917 36.0302044 -4.06407917 36.0302044 -1.15625 38.21484375 C-0.4446875 38.80394531 0.266875 39.39304688 1 40 C1 40.66 1 41.32 1 42 C-1.70942393 42.10861833 -4.414439 42.18758577 -7.125 42.25 C-7.88554688 42.28351563 -8.64609375 42.31703125 -9.4296875 42.3515625 C-16.06772636 42.46601145 -19.42870349 40.35630516 -24.3359375 35.859375 C-25.00882813 35.16328125 -25.68171875 34.4671875 -26.375 33.75 C-27.06335938 33.04359375 -27.75171875 32.3371875 -28.4609375 31.609375 C-28.96882813 31.07828125 -29.47671875 30.5471875 -30 30 C-33.1857029 31.39330742 -35.19822217 33.02896738 -37.5625 35.5625 C-39.8343494 37.99626295 -40.76779382 38.92259794 -44 40 C-45.98 37.36 -47.96 34.72 -50 32 C-48.193388 28.38677599 -47.33581029 27.16251209 -44.375 24.75 C-43.42753906 23.96882813 -43.42753906 23.96882813 -42.4609375 23.171875 C-41.73777344 22.59179688 -41.73777344 22.59179688 -41 22 C-42.33579648 19.02363795 -43.79234603 16.96048142 -46.125 14.6875 C-46.74117187 14.08679688 -47.35734375 13.48609375 -47.9921875 12.8671875 C-50.65961713 10.38658173 -53.4114436 8.01521027 -56.203125 5.67578125 C-58.07674426 3.92842764 -59.52511967 2.0894138 -61 0 C-45.13559322 -1.06779661 -45.13559322 -1.06779661 -40.1640625 1.41796875 C-38.21544806 3.16873536 -36.60272976 4.93239005 -35 7 C-33.7625 8.2065625 -33.7625 8.2065625 -32.5 9.4375 C-32.005 9.953125 -31.51 10.46875 -31 11 C-27.59755337 9.53197808 -25.43198106 7.59562422 -22.8125 5 C-15.64726968 -1.46160705 -9.19957354 -1.46024977 0 0 Z " fill="#11357A" transform="translate(120,147)"/>
<path d="M0 0 C1.21236328 0.01353516 1.21236328 0.01353516 2.44921875 0.02734375 C3.37154297 0.04474609 3.37154297 0.04474609 4.3125 0.0625 C3.53727197 6.75331425 -0.96030642 10.61379668 -5.6875 15.0625 C-17.29829938 23.96915555 -30.40394735 26.49592292 -44.6875 25.0625 C-50.22910084 24.03986044 -55.0396443 22.31599899 -59.6875 19.0625 C-56.44731733 17.98243911 -55.71340622 18.13604184 -52.5625 19 C-41.73387263 21.54586086 -31.08276472 19.83028724 -21.375 14.3125 C-15.84326476 10.74047773 -11.3399852 6.54122779 -7.6875 1.0625 C-4.80538698 0.10179566 -2.98899956 -0.04331883 0 0 Z " fill="#72AFD3" transform="translate(101.6875,190.9375)"/>
<path d="M0 0 C5.92959729 4.36368251 9.88367645 9.09606834 13.21875 15.6328125 C11.68923974 17.16232276 10.28514586 16.9867476 8.15625 17.1328125 C3.01121927 17.0758264 0.75627516 15.12632911 -2.83203125 11.63671875 C-3.47527344 10.97542969 -4.11851563 10.31414062 -4.78125 9.6328125 C-13.2971773 1.15274174 -23.39269496 -3.45285398 -35.53125 -3.5546875 C-40.77521797 -3.51483972 -45.69372415 -2.57953409 -50.78125 -1.3671875 C-38.46268761 -15.07335806 -13.47970278 -8.70928848 0 0 Z " fill="#78AECD" transform="translate(93.78125,129.3671875)"/>
<path d="M0 0 C0.556875 0.185625 1.11375 0.37125 1.6875 0.5625 C4.02322803 1.15591199 4.02322803 1.15591199 6.4375 0.5 C9.30677352 -0.05985825 11.16577814 0.41862116 14 1 C15.33783393 0.68521554 16.67203709 0.35412344 18 0 C21 1 21 1 22 3 C22.66 2.01 23.32 1.02 24 0 C24.66 0 25.32 0 26 0 C26.33 1.32 26.66 2.64 27 4 C27.66 2.68 28.32 1.36 29 0 C32 1 32 1 33.1875 3.375 C34 6 34 6 34 9 C32.35 8.34 30.7 7.68 29 7 C29 7.66 29 8.32 29 9 C29.99 9.33 30.98 9.66 32 10 C31.67 11.65 31.34 13.3 31 15 C30.01 15 29.02 15 28 15 C28 13.68 28 12.36 28 11 C26.68 11.33 25.36 11.66 24 12 C24.99 12.66 25.98 13.32 27 14 C23.24329669 14.96600942 20.75750219 14.77076968 17 14 C16.41863281 14.15339844 15.83726563 14.30679688 15.23828125 14.46484375 C12.36435209 15.15197865 9.70135186 15.09457991 6.75 15.0625 C5.67234375 15.05347656 4.5946875 15.04445312 3.484375 15.03515625 C2.66453125 15.02355469 1.8446875 15.01195312 1 15 C0.83126522 13.56274129 0.66509263 12.12518162 0.5 10.6875 C0.4071875 9.88699219 0.314375 9.08648437 0.21875 8.26171875 C-0.04828663 5.50075073 0 2.77296326 0 0 Z M6 2 C5.67 2.99 5.34 3.98 5 5 C5.66 5.66 6.32 6.32 7 7 C7 5.35 7 3.7 7 2 C6.67 2 6.34 2 6 2 Z M16 2 C15.67 2.99 15.34 3.98 15 5 C15.66 5.66 16.32 6.32 17 7 C17 5.35 17 3.7 17 2 C16.67 2 16.34 2 16 2 Z M3 7 C2.67 7.66 2.34 8.32 2 9 C2.99 8.67 3.98 8.34 5 8 C4.34 7.67 3.68 7.34 3 7 Z M13 7 C13.33 7.99 13.66 8.98 14 10 C14 9.01 14 8.02 14 7 C13.67 7 13.34 7 13 7 Z M17 8 C18 11 18 11 18 11 Z M11 10 C11 10.99 11 11.98 11 13 C11.66 13 12.32 13 13 13 C12.67 12.01 12.34 11.02 12 10 C11.67 10 11.34 10 11 10 Z M8 12 C9 14 9 14 9 14 Z " fill="#255994" transform="translate(48,190)"/>
<path d="M0 0 C1.60901457 0.07224147 3.21635833 0.20234578 4.81640625 0.38671875 C6.05680664 0.46116211 6.05680664 0.46116211 7.32226562 0.53710938 C9.34498416 0.66572154 11.36313444 0.86304266 13.37890625 1.07421875 C13.50265625 1.71359375 13.62640625 2.35296875 13.75390625 3.01171875 C13.96015625 3.69234375 14.16640625 4.37296875 14.37890625 5.07421875 C15.03890625 5.40421875 15.69890625 5.73421875 16.37890625 6.07421875 C13.37890625 6.07421875 13.37890625 6.07421875 11.69140625 4.57421875 C11.25828125 4.07921875 10.82515625 3.58421875 10.37890625 3.07421875 C10.06953125 3.87859375 9.76015625 4.68296875 9.44140625 5.51171875 C8.37890625 8.07421875 8.37890625 8.07421875 7.37890625 9.07421875 C17.27890625 9.73421875 27.17890625 10.39421875 37.37890625 11.07421875 C37.37890625 11.40421875 37.37890625 11.73421875 37.37890625 12.07421875 C21.20890625 12.07421875 5.03890625 12.07421875 -11.62109375 12.07421875 C-4.62109375 1.07421875 -4.62109375 1.07421875 0 0 Z " fill="#13326F" transform="translate(38.62109375,176.92578125)"/>
<path d="M0 0 C0.556875 0.185625 1.11375 0.37125 1.6875 0.5625 C4.02322803 1.15591199 4.02322803 1.15591199 6.4375 0.5 C9.30677352 -0.05985825 11.16577814 0.41862116 14 1 C15.33783393 0.68521554 16.67203709 0.35412344 18 0 C21 1 21 1 22 3 C22.66 2.01 23.32 1.02 24 0 C24.66 0 25.32 0 26 0 C26 1.98 26 3.96 26 6 C25.34 6 24.68 6 24 6 C23.34 7.32 22.68 8.64 22 10 C19.69 10 17.38 10 15 10 C14.67 9.34 14.34 8.68 14 8 C13.43796875 8.17402344 12.8759375 8.34804687 12.296875 8.52734375 C9.75443245 9.05053346 7.81547663 8.90204838 5.25 8.5625 C4.45078125 8.46066406 3.6515625 8.35882813 2.828125 8.25390625 C2.22484375 8.17011719 1.6215625 8.08632812 1 8 C1 7.01 1 6.02 1 5 C0.68911632 3.32900023 0.35919668 1.66128463 0 0 Z M6 2 C5.67 2.99 5.34 3.98 5 5 C5.66 5.66 6.32 6.32 7 7 C7 5.35 7 3.7 7 2 C6.67 2 6.34 2 6 2 Z M16 2 C15.67 2.99 15.34 3.98 15 5 C15.66 5.66 16.32 6.32 17 7 C17 5.35 17 3.7 17 2 C16.67 2 16.34 2 16 2 Z " fill="#153367" transform="translate(48,190)"/>
<path d="M0 0 C2.475 0.495 2.475 0.495 5 1 C5.33 1.99 5.66 2.98 6 4 C7.32148827 4.37756808 8.65835921 4.7018576 10 5 C15.24350906 7.28563215 17.31737449 11.19410493 20 16 C18.46028172 17.53971828 17.01514329 17.31779707 14.875 17.4375 C10.09087869 17.39928817 7.76908238 15.87165885 4.3125 12.703125 C2.84219716 10.79523203 2.52848745 9.32156987 2 7 C1.34 6.34 0.68 5.68 0 5 C-0.125 2.375 -0.125 2.375 0 0 Z " fill="#75B4D6" transform="translate(87,129)"/>
<path d="M0 0 C0.76183594 0.144375 1.52367187 0.28875 2.30859375 0.4375 C13.23902325 2.40252103 22.09191979 2.06718271 33 0 C32.01 1.32 31.02 2.64 30 4 C32.76276177 3.47731534 35.3260876 2.89130413 38 2 C38.66 2.33 39.32 2.66 40 3 C40 2.34 40 1.68 40 1 C41.98 1 43.96 1 46 1 C37.19156852 8.06653941 25.79476668 7.97669499 15 7 C9.52668589 5.99928212 4.52877255 4.32109987 0 1 C0 0.67 0 0.34 0 0 Z " fill="#5B98C2" transform="translate(42,209)"/>
<path d="M0 0 C2.64 0 5.28 0 8 0 C7.17378656 5.78349405 4.66213404 10.4034966 0 14 C-3.14522722 14.31452272 -5.15916359 14.42041821 -8 13 C-6.32567205 8.57499041 -5.04893836 5.69929224 -1 3 C-0.67 2.01 -0.34 1.02 0 0 Z " fill="#72B5DA" transform="translate(95,193)"/>
<path d="M0 0 C0.515625 0.268125 1.03125 0.53625 1.5625 0.8125 C4.16624706 2.12938801 4.16624706 2.12938801 7.6875 3.375 C11 5 11 5 12.0625 7 C12 9 12 9 10 12 C10.99 12.33 11.98 12.66 13 13 C10 14 10 14 8.17578125 13.22265625 C6.45052083 12.1484375 4.72526042 11.07421875 3 10 C3 9.34 3 8.68 3 8 C2.34 8 1.68 8 1 8 C1 7.34 1 6.68 1 6 C-0.32 5.67 -1.64 5.34 -3 5 C-2.01 3.35 -1.02 1.7 0 0 Z " fill="#10367E" transform="translate(24,202)"/>
<path d="M0 0 C0.99 0.99 1.98 1.98 3 3 C3.33 2.01 3.66 1.02 4 0 C4.99 0 5.98 0 7 0 C7 0.99 7 1.98 7 3 C8.65 3 10.3 3 12 3 C12 3.99 12 4.98 12 6 C10.35 6 8.7 6 7 6 C7 6.66 7 7.32 7 8 C4.6875 8.625 4.6875 8.625 2 9 C1.01 8.34 0.02 7.68 -1 7 C-0.67 7.99 -0.34 8.98 0 10 C-1.32 9.67 -2.64 9.34 -4 9 C-3.71848913 7.68528432 -3.42446661 6.37324233 -3.125 5.0625 C-2.96257813 4.33160156 -2.80015625 3.60070312 -2.6328125 2.84765625 C-2 1 -2 1 0 0 Z " fill="#153268" transform="translate(35,190)"/>
<path d="M0 0 C2.375 0.1875 2.375 0.1875 5 1 C5.309375 1.825 5.61875 2.65 5.9375 3.5 C6.288125 4.325 6.63875 5.15 7 6 C10.11909446 6.86272825 12.7724251 7 16 7 C16 7.66 16 8.32 16 9 C19.465 8.505 19.465 8.505 23 8 C23 7.01 23 6.02 23 5 C24.7074998 6.28062485 26.37373596 7.61767557 28 9 C28 9.66 28 10.32 28 11 C25.29057607 11.10861833 22.585561 11.18758577 19.875 11.25 C19.11445312 11.28351563 18.35390625 11.31703125 17.5703125 11.3515625 C10.65184462 11.47084643 7.21710961 9.02431747 2.125 4.375 C0 2 0 2 0 0 Z " fill="#1C386E" transform="translate(93,178)"/>
<path d="M0 0 C3.28788824 3.11016455 5.83735988 6.01618925 8 10 C6.46028172 11.53971828 5.01514329 11.31779707 2.875 11.4375 C-2.0574615 11.42960806 -4.34473096 9.68271252 -7.78515625 6.3125 C-8.38650391 5.6628125 -8.38650391 5.6628125 -9 5 C-8.34 4.67 -7.68 4.34 -7 4 C-6.34 4.33 -5.68 4.66 -5 5 C-5 5.66 -5 6.32 -5 7 C-4.01 7 -3.02 7 -2 7 C-0.5393715 4.35261084 0 3.10551666 0 0 Z " fill="#73ADCD" transform="translate(99,135)"/>
<path d="M0 0 C1.21236328 0.01353516 1.21236328 0.01353516 2.44921875 0.02734375 C3.37154297 0.04474609 3.37154297 0.04474609 4.3125 0.0625 C3.8331753 4.37642226 2.5667015 6.22819547 -0.6875 9.0625 C-0.0275 6.7525 0.6325 4.4425 1.3125 2.0625 C-1.3275 2.3925 -3.9675 2.7225 -6.6875 3.0625 C-6.8421875 4.0215625 -6.8421875 4.0215625 -7 5 C-7.226875 5.680625 -7.45375 6.36125 -7.6875 7.0625 C-8.6775 7.3925 -9.6675 7.7225 -10.6875 8.0625 C-11.91195284 9.69198064 -11.91195284 9.69198064 -12.875 11.625 C-13.473125 12.759375 -14.07125 13.89375 -14.6875 15.0625 C-15.6775 14.7325 -16.6675 14.4025 -17.6875 14.0625 C-18.6775 14.0625 -19.6675 14.0625 -20.6875 14.0625 C-19.91664062 13.37542969 -19.14578125 12.68835938 -18.3515625 11.98046875 C-17.33838582 11.07048599 -16.32537357 10.16032013 -15.3125 9.25 C-14.80460937 8.79818359 -14.29671875 8.34636719 -13.7734375 7.88085938 C-11.36577204 5.71079248 -9.49688139 3.77657209 -7.6875 1.0625 C-4.80538698 0.10179566 -2.98899956 -0.04331883 0 0 Z " fill="#79A6C2" transform="translate(101.6875,190.9375)"/>
<path d="M0 0 C0 0.33 0 0.66 0 1 C-3.63 1 -7.26 1 -11 1 C-11 1.66 -11 2.32 -11 3 C-8.03 3.495 -8.03 3.495 -5 4 C-5 4.33 -5 4.66 -5 5 C-5.96679688 4.97679688 -6.93359375 4.95359375 -7.9296875 4.9296875 C-15.5655519 4.82384384 -22.55811233 5.03884372 -30 7 C-22.36114527 -1.49932342 -10.5421617 -0.38412735 0 0 Z " fill="#5085A9" transform="translate(73,121)"/>
<path d="M0 0 C3.465 1.98 3.465 1.98 7 4 C4.6875 6.0625 4.6875 6.0625 2 8 C1.01 7.67 0.02 7.34 -1 7 C-1 3 -1 3 0 0 Z M-14 1 C-12.68 1 -11.36 1 -10 1 C-10 1.66 -10 2.32 -10 3 C-9.34 3 -8.68 3 -8 3 C-8 3.66 -8 4.32 -8 5 C-5.39230553 6.11758334 -3.13392748 6.98131244 -0.3125 7.375 C2 8 2 8 3.3125 10.0625 C3.539375 10.701875 3.76625 11.34125 4 12 C-2.67845161 10.24251274 -10.10957089 6.83564366 -14 1 Z " fill="#133069" transform="translate(35,207)"/>
<path d="M0 0 C-3.3810038 4.13621084 -6.66590534 7.81316569 -11 11 C-9.6302836 7.00499382 -7.74277578 4.19990508 -5 1 C-13.33632962 1.55330175 -13.33632962 1.55330175 -20.25 5.625 C-20.8275 6.40875 -21.405 7.1925 -22 8 C-22.99 7.67 -23.98 7.34 -25 7 C-17.41346488 -0.75729314 -10.46268142 -1.66074308 0 0 Z " fill="#1B3468" transform="translate(120,147)"/>
<path d="M0 0 C26.80198164 -1.29826606 26.80198164 -1.29826606 35.90625 6.66796875 C36.44765625 7.32732422 36.44765625 7.32732422 37 8 C31.53135543 6.98408579 26.23609987 5.92908943 21 4 C21 3.34 21 2.68 21 2 C14.07 1.67 7.14 1.34 0 1 C0 0.67 0 0.34 0 0 Z " fill="#17335E" transform="translate(48,115)"/>
<path d="M0 0 C2.3431213 0.25561323 4.67843403 0.59270772 7 1 C7.33 1.66 7.66 2.32 8 3 C6.68 3 5.36 3 4 3 C4 3.66 4 4.32 4 5 C5.32 5.33 6.64 5.66 8 6 C4.03974928 7.05606686 0.94554092 6.91749138 -3.125 6.5 C-4.03507812 6.4071875 -4.94515625 6.314375 -5.8828125 6.21875 C-6.58148438 6.1465625 -7.28015625 6.074375 -8 6 C-7.67 4.68 -7.34 3.36 -7 2 C-5.68 1.67 -4.36 1.34 -3 1 C-3 2.32 -3 3.64 -3 5 C-2.34 5 -1.68 5 -1 5 C-0.67 3.35 -0.34 1.7 0 0 Z " fill="#2A547F" transform="translate(40,198)"/>
<path d="M0 0 C-5.62441625 3.06683462 -10.5238663 5.7301611 -17 6 C-17.66 5.67 -18.32 5.34 -19 5 C-19 4.34 -19 3.68 -19 3 C-22.3 3 -25.6 3 -29 3 C-29 2.67 -29 2.34 -29 2 C-27.70964844 1.95101562 -26.41929688 1.90203125 -25.08984375 1.8515625 C-23.37237653 1.77648197 -21.65492959 1.70093646 -19.9375 1.625 C-19.08994141 1.5940625 -18.24238281 1.563125 -17.36914062 1.53125 C-13.43322895 1.34889116 -9.83897342 1.07953588 -6.06640625 -0.1015625 C-3 -1 -3 -1 0 0 Z " fill="#1A3965" transform="translate(85,215)"/>
<path d="M0 0 C3.46941546 0.45822468 6.67395049 0.89131683 10 2 C11.33106622 2.34227417 12.66400079 2.67751743 14 3 C13.01 3.66 12.02 4.32 11 5 C11.99 6.485 11.99 6.485 13 8 C9.04 8 5.08 8 1 8 C0.67 5.36 0.34 2.72 0 0 Z M8 5 C9 7 9 7 9 7 Z " fill="#265083" transform="translate(48,197)"/>
<path d="M0 0 C0.33 0.66 0.66 1.32 1 2 C0.01 2.66 -0.98 3.32 -2 4 C-2.2502157 7.08365871 -2.2502157 7.08365871 -2 10 C0.76276177 9.47731534 3.3260876 8.89130413 6 8 C6 7.34 6 6.68 6 6 C6.99 6.33 7.98 6.66 9 7 C8.07038578 8.15224028 7.1309875 9.29659176 6.1875 10.4375 C5.40439453 11.39462891 5.40439453 11.39462891 4.60546875 12.37109375 C3 14 3 14 0 15 C-1.98 12.36 -3.96 9.72 -6 7 C-4.11656068 3.23312136 -3.30867531 2.20578354 0 0 Z " fill="#153068" transform="translate(76,172)"/>
<path d="M0 0 C0.59375 1.89453125 0.59375 1.89453125 1 4 C0.2575 4.8353125 0.2575 4.8353125 -0.5 5.6875 C-2.5877846 8.90616792 -2.0701748 11.16886401 -1.52734375 14.87109375 C-0.88772165 17.45327184 0.1208724 19.1208724 2 21 C1.01 21.99 0.02 22.98 -1 24 C-3.27345413 18.56347926 -5.58897596 12.99684609 -5 7 C-3.6199066 4.22962801 -2.06018957 2.36168073 0 0 Z " fill="#1B3166" transform="translate(23,164)"/>
<path d="M0 0 C2.60444348 -0.05394705 5.20776998 -0.09364469 7.8125 -0.125 C8.55048828 -0.14175781 9.28847656 -0.15851563 10.04882812 -0.17578125 C13.91246426 -0.21074628 15.70903668 -0.19397555 19 2 C17.37509046 2.02698189 15.75005367 2.04638757 14.125 2.0625 C13.22007813 2.07410156 12.31515625 2.08570312 11.3828125 2.09765625 C9 2 9 2 7 1 C7 1.66 7 2.32 7 3 C7.804375 3.12375 8.60875 3.2475 9.4375 3.375 C10.7059375 3.684375 10.7059375 3.684375 12 4 C12.33 4.66 12.66 5.32 13 6 C8.15340923 5.40895235 4.39251833 4.02055843 0 2 C0 1.34 0 0.68 0 0 Z " fill="#69A2C6" transform="translate(62,122)"/>
<path d="M0 0 C1.35220124 2.70440248 0.61102238 4.06127332 0 7 C-0.44590961 14.91230311 0.0575486 22.31691098 2 30 C1.01 30.33 0.02 30.66 -1 31 C-1.92947576 24.67956486 -2.18305402 18.50942943 -2.1875 12.125 C-2.19974609 11.17625 -2.21199219 10.2275 -2.22460938 9.25 C-2.22654297 8.34507812 -2.22847656 7.44015625 -2.23046875 6.5078125 C-2.23457764 5.68941895 -2.23868652 4.87102539 -2.24291992 4.02783203 C-2 2 -2 2 0 0 Z " fill="#173567" transform="translate(17,155)"/>
<path d="M0 0 C2.19421711 2.11585221 4.14927218 4.19591974 6 6.625 C7.93552849 8.92344008 9.24366461 9.91715395 12 11 C8.33373987 12.02314236 6.63347875 12.32377803 3.1875 10.5625 C0.16023616 7.01627665 0.23023526 4.60470523 0 0 Z " fill="#14356B" transform="translate(23,194)"/>
<path d="M0 0 C3 1 3 1 4.1875 3.375 C5 6 5 6 5 9 C2.36 8.67 -0.28 8.34 -3 8 C-2.01 5.36 -1.02 2.72 0 0 Z " fill="#153873" transform="translate(77,190)"/>
<path d="M0 0 C1.91789713 0.28346278 3.83429183 0.5771028 5.75 0.875 C7.35101563 1.11863281 7.35101563 1.11863281 8.984375 1.3671875 C11.67708871 1.93223882 13.63572439 2.63422914 16 4 C15.34 4 14.68 4 14 4 C14 4.66 14 5.32 14 6 C8.29290936 5.53411505 4.84060277 4.06242216 0 1 C0 0.67 0 0.34 0 0 Z " fill="#2A5E89" transform="translate(42,209)"/>
<path d="M0 0 C2.97 0 5.94 0 9 0 C9 0.66 9 1.32 9 2 C9.66 2.33 10.32 2.66 11 3 C10 4 10 4 8.14233398 4.11352539 C7.35157471 4.10828857 6.56081543 4.10305176 5.74609375 4.09765625 C4.89208984 4.09443359 4.03808594 4.09121094 3.15820312 4.08789062 C2.26037109 4.07951172 1.36253906 4.07113281 0.4375 4.0625 C-0.46419922 4.05798828 -1.36589844 4.05347656 -2.29492188 4.04882812 C-4.53001314 4.03700225 -6.76497437 4.0205222 -9 4 C-9 3.67 -9 3.34 -9 3 C-2.565 2.505 -2.565 2.505 4 2 C2.68 1.34 1.36 0.68 0 0 Z " fill="#13326D" transform="translate(57,218)"/>
<path d="M0 0 C3.66186662 3.37277189 5.08905121 5.22262802 7 10 C2.38 10 -2.24 10 -7 10 C-3.3558226 7.5705484 -1.28758728 7.83820425 3 8 C3 7.01 3 6.02 3 5 C2.34 5 1.68 5 1 5 C1 4.34 1 3.68 1 3 C0.01 2.67 -0.98 2.34 -2 2 C-1.34 2 -0.68 2 0 2 C0 1.34 0 0.68 0 0 Z " fill="#12336C" transform="translate(68,178)"/>
<path d="M0 0 C0.66 0 1.32 0 2 0 C2 0.66 2 1.32 2 2 C2.99 1.67 3.98 1.34 5 1 C5 1.66 5 2.32 5 3 C5.99 3.33 6.98 3.66 8 4 C7.67 5.65 7.34 7.3 7 9 C6.01 9 5.02 9 4 9 C4 7.68 4 6.36 4 5 C2.35 4.67 0.7 4.34 -1 4 C-0.67 2.68 -0.34 1.36 0 0 Z " fill="#3A658E" transform="translate(72,196)"/>
<path d="M0 0 C0.66 0.33 1.32 0.66 2 1 C2 3.66666667 2 6.33333333 2 9 C1.01 8.34 0.02 7.68 -1 7 C-0.67 7.99 -0.34 8.98 0 10 C-1.32 9.67 -2.64 9.34 -4 9 C-3.71848913 7.68528432 -3.42446661 6.37324233 -3.125 5.0625 C-2.96257813 4.33160156 -2.80015625 3.60070312 -2.6328125 2.84765625 C-2 1 -2 1 0 0 Z " fill="#1D376D" transform="translate(35,190)"/>
<path d="M0 0 C1.28132813 0.10183594 2.56265625 0.20367187 3.8828125 0.30859375 C4.87023437 0.39238281 5.85765625 0.47617188 6.875 0.5625 C6.545 1.2225 6.215 1.8825 5.875 2.5625 C0.925 2.5625 -4.025 2.5625 -9.125 2.5625 C-9.125 1.9025 -9.125 1.2425 -9.125 0.5625 C-6.07230154 -0.96384923 -3.36654311 -0.27544444 0 0 Z " fill="#0D377B" transform="translate(62.125,116.4375)"/>
<path d="M0 0 C0 0.66 0 1.32 0 2 C0.99 2.33 1.98 2.66 3 3 C1.35 4.65 -0.3 6.3 -2 8 C-2.99 7.67 -3.98 7.34 -5 7 C-5.1875 4.625 -5.1875 4.625 -5 2 C-2 0 -2 0 0 0 Z " fill="#77ADCC" transform="translate(98,198)"/>
<path d="M0 0 C1.32 0.33 2.64 0.66 4 1 C4 1.66 4 2.32 4 3 C5.98 2.67 7.96 2.34 10 2 C9.67 3.32 9.34 4.64 9 6 C10.98 6 12.96 6 15 6 C15.33 5.34 15.66 4.68 16 4 C16 4.99 16 5.98 16 7 C11.94093514 7.49702835 8.44190436 7.86984448 4.84375 5.69921875 C3.10625165 4.20739127 1.49469727 2.7350023 0 1 C0 0.67 0 0.34 0 0 Z " fill="#6EA2C0" transform="translate(90,139)"/>
<path d="M0 0 C2.95857409 -0.05379226 5.91617721 -0.09357093 8.875 -0.125 C9.71675781 -0.14175781 10.55851562 -0.15851563 11.42578125 -0.17578125 C12.23144531 -0.18222656 13.03710938 -0.18867188 13.8671875 -0.1953125 C14.98262939 -0.21102295 14.98262939 -0.21102295 16.12060547 -0.22705078 C18 0 18 0 20 2 C14.72 2 9.44 2 4 2 C3.67 2.66 3.34 3.32 3 4 C2.01 2.68 1.02 1.36 0 0 Z " fill="#223565" transform="translate(59,147)"/>
<path d="M0 0 C0.66 0 1.32 0 2 0 C2 1.98 2 3.96 2 6 C-0.31 6.33 -2.62 6.66 -5 7 C-5 6.01 -5 5.02 -5 4 C-4.01 3.67 -3.02 3.34 -2 3 C-1.34 2.01 -0.68 1.02 0 0 Z " fill="#143072" transform="translate(72,190)"/>
<path d="M0 0 C3.875 4.75 3.875 4.75 5 7 C0.25 6.25 0.25 6.25 -2 4 C-2.33 3.01 -2.66 2.02 -3 1 C-2.01 0.67 -1.02 0.34 0 0 Z " fill="#13326F" transform="translate(63,170)"/>
<path d="M0 0 C3.93774177 -0.36630156 5.56539771 -0.30233203 8.875 2 C9.926875 2.99 9.926875 2.99 11 4 C10.67 4.66 10.34 5.32 10 6 C7.97954558 5.39816251 5.97888961 4.72693904 4 4 C3.67 3.34 3.34 2.68 3 2 C2.01 1.34 1.02 0.68 0 0 Z " fill="#1B326C" transform="translate(39,146)"/>
<path d="M0 0 C4.2742558 1.5830577 6.26531794 4.50568404 9 8 C6.0625 7.25 6.0625 7.25 3 6 C2.125 3.875 2.125 3.875 2 2 C1.34 2 0.68 2 0 2 C0 1.34 0 0.68 0 0 Z " fill="#15306B" transform="translate(101,170)"/>
<path d="M0 0 C0.33 0.66 0.66 1.32 1 2 C0.06421005 4.35981813 -0.93347808 6.69631264 -2 9 C-2.66 9 -3.32 9 -4 9 C-4.33 9.99 -4.66 10.98 -5 12 C-5.66 12 -6.32 12 -7 12 C-5.44298069 7.32894208 -2.91552627 3.91294315 0 0 Z " fill="#193369" transform="translate(16,133)"/>
<path d="M0 0 C-2.42130331 2.42130331 -3.80111377 2.52840504 -7.125 3.125 C-8.03507812 3.29257813 -8.94515625 3.46015625 -9.8828125 3.6328125 C-10.58148438 3.75398438 -11.28015625 3.87515625 -12 4 C-7.97476284 -0.30283972 -5.79398913 -1.40934871 0 0 Z " fill="#37658A" transform="translate(55,124)"/>
<path d="M0 0 C1.98 0 3.96 0 6 0 C2.267612 3.57011026 -2.0949989 4.10913442 -7 5 C-5.35 3.68 -3.7 2.36 -2 1 C-1.34 1.33 -0.68 1.66 0 2 C0 1.34 0 0.68 0 0 Z " fill="#6B9CB9" transform="translate(82,210)"/>
<path d="M0 0 C3.3 0.33 6.6 0.66 10 1 C9.67 1.66 9.34 2.32 9 3 C9.33 3.33 9.66 3.66 10 4 C8.125 4.625 8.125 4.625 6 5 C5.34 4.34 4.68 3.68 4 3 C1.93125966 2.3574765 1.93125966 2.3574765 0 2 C0 1.34 0 0.68 0 0 Z " fill="#75B4D8" transform="translate(69,123)"/>
<path d="M0 0 C1.11375 0.556875 1.11375 0.556875 2.25 1.125 C1.92 1.785 1.59 2.445 1.25 3.125 C-1.39 3.125 -4.03 3.125 -6.75 3.125 C-6.75 2.465 -6.75 1.805 -6.75 1.125 C-4.02098495 -0.69434337 -3.21400584 -1.02263822 0 0 Z " fill="#3E6B92" transform="translate(72.75,201.875)"/>
<path d="M0 0 C3 1 3 1 4.1875 3.375 C5 6 5 6 5 9 C4.01 8.67 3.02 8.34 2 8 C2 6.02 2 4.04 2 2 C1.34 2 0.68 2 0 2 C0 1.34 0 0.68 0 0 Z " fill="#1C3459" transform="translate(77,190)"/>
<path d="M0 0 C2.475 0.99 2.475 0.99 5 2 C4.34 3.98 3.68 5.96 3 8 C2.34 8 1.68 8 1 8 C0.67 5.36 0.34 2.72 0 0 Z " fill="#27476E" transform="translate(48,197)"/>
<path d="M0 0 C0.99 0.33 1.98 0.66 3 1 C2.67 2.65 2.34 4.3 2 6 C0.35 6 -1.3 6 -3 6 C-2 3 -2 3 0 0 Z " fill="#123375" transform="translate(59,193)"/>
<path d="M0 0 C4.75 0.75 4.75 0.75 7 3 C5 5 5 5 3 6 C2.67 6.66 2.34 7.32 2 8 C2 5.69 2 3.38 2 1 C1.34 0.67 0.68 0.34 0 0 Z " fill="#6DA2C1" transform="translate(81,124)"/>
<path d="M0 0 C0.68707555 2.49064888 1 4.37886292 1 7 C-0.65 7 -2.3 7 -4 7 C-2.68 4.69 -1.36 2.38 0 0 Z " fill="#153067" transform="translate(28,157)"/>
<path d="M0 0 C0.33 0.99 0.66 1.98 1 3 C-2 5 -2 5 -4.6875 4.625 C-5.450625 4.41875 -6.21375 4.2125 -7 4 C-7 3.01 -7 2.02 -7 1 C-5.68 1.66 -4.36 2.32 -3 3 C-2.01 2.01 -1.02 1.02 0 0 Z " fill="#1B3166" transform="translate(94,155)"/>
<path d="M0 0 C-4.30769231 3.07692308 -4.30769231 3.07692308 -7.8125 2.6875 C-8.534375 2.460625 -9.25625 2.23375 -10 2 C-3.72972973 -1.24324324 -3.72972973 -1.24324324 0 0 Z " fill="#344C71" transform="translate(85,215)"/>
</svg>
